<?xml version="1.0" encoding="UTF-8"?>
<svg id="Layer_1" xmlns="http://www.w3.org/2000/svg" version="1.1" viewBox="0 0 250 80">
  <!-- Generator: Adobe Illustrator 29.1.0, SVG Export Plug-In . SVG Version: 2.1.0 Build 142)  -->
  <defs>
    <style>
      .st0 {
        fill: #fa7a21;
      }

      .st1 {
        fill: none;
        stroke: #fa7a21;
        stroke-miterlimit: 10;
        stroke-width: 2px;
      }
    </style>
  </defs>
  <g>
    <g>
      <path d="M36.2,32.6l8.6-17.2h18c0,0-5.5,10-5.5,10h-11.5v34.6h-16.5l-5.2,4.7h0c1.6-2.7,3.1-5.3,4.7-7.9,4.8-7.7,9.7-15.3,14.4-23,.2-.4.5-.8.6-1.2h-7.5Z"/>
      <path class="st0" d="M33.9,15.4v.2c-.9,2.8-1.8,5.6-2.7,8.3,0,.3-.2.4-.2.7-1.5,4.4-3,8.8-4.5,13.3h-.2c.2.5-.5,1.4-.5,1.9s0,.3.1.3h6.7l-.2.5h-.2c0-.1-.3.7-.3.7h.3c-.5,1.4-1.1,2.9-1.6,4.4s-.2.4-.3.7c-.6,1.6-1.2,3.2-1.7,4.9-.2.1-.2-.3-.3-.2-.1.1-.1.5-.2.6s-.1,0-.2.1c0,.1,0,.5,0,.7l.2-.2-1.7,4.9v-.3c-.2-.1-.5,1-.5,1.2,0,.3.2,0,.2.2-.2.6-.5,1.2-.6,1.7h-1.6V25.3s-.3,0-.3,0v-.2c-2.7,0-5.4.1-8,0s-.9.2-1,0c-2.1.2-4.1-.1-6.2.1s-.8,0-.8-.1l-.9.2,5.5-9.7c0,0,.3-.2.4-.2h21.3Z"/>
    </g>
    <rect class="st1" x="3.2" y="8.5" width="63.1" height="63.1" rx="9.8" ry="9.8"/>
  </g>
  <g>
    <g>
      <path d="M90.1,19.2h-6.2v-4.5h18v4.5h-6.1v15.6h-5.7v-15.6Z"/>
      <path d="M135.1,14.7l-6.5,20h-6.1l-3.8-12.2-4,12.2h-6.1l-6.5-20h5.8l4,12.8,4.2-12.8h5.2l4,12.9,4.2-12.9h5.4Z"/>
      <path d="M137.3,14.7h5.7v20h-5.7V14.7Z"/>
      <path d="M147.1,14.7h5.7v15.6h9.6v4.5h-15.2V14.7Z"/>
      <path d="M164.7,14.7h5.7v20h-5.7V14.7Z"/>
      <path d="M188,24.3h5v8.3c-2.3,1.7-5.5,2.5-8.4,2.5-6.4,0-11.1-4.3-11.1-10.4s4.7-10.4,11.2-10.4,6.8,1.3,8.8,3.7l-3.6,3.3c-1.4-1.5-3-2.2-4.9-2.2-3.4,0-5.7,2.3-5.7,5.7s2.3,5.7,5.7,5.7,2.1-.2,3.1-.7v-5.5Z"/>
      <path d="M215.9,14.7v20h-5.7v-7.8h-7.7v7.8h-5.7V14.7h5.7v7.5h7.7v-7.5h5.7Z"/>
      <path d="M224.3,19.2h-6.2v-4.5h18v4.5h-6.1v15.6h-5.7v-15.6Z"/>
    </g>
    <g>
      <path class="st0" d="M81.8,50.7v1.8h-8.6v-11.5h8.4v1.8h-6.2v3h5.5v1.8h-5.5v3.2h6.5Z"/>
      <path class="st0" d="M93.5,41v11.5h-1.8l-6.3-7.8v7.8h-2.1v-11.5h1.8l6.3,7.8v-7.8h2.1Z"/>
      <path class="st0" d="M103.6,46.6h2v4.6c-1.2,1-2.9,1.5-4.5,1.5-3.5,0-6.2-2.5-6.2-5.9s2.6-5.9,6.2-5.9,3.5.6,4.6,1.9l-1.3,1.3c-.9-.9-1.9-1.3-3.2-1.3-2.4,0-4.2,1.7-4.2,4s1.7,4,4.1,4,1.6-.2,2.4-.6v-3.6Z"/>
      <path class="st0" d="M107.6,41h2.1v11.5h-2.1v-11.5Z"/>
      <path class="st0" d="M122.2,41v11.5h-1.8l-6.3-7.8v7.8h-2.1v-11.5h1.8l6.3,7.8v-7.8h2.1Z"/>
      <path class="st0" d="M133,50.7v1.8h-8.6v-11.5h8.4v1.8h-6.2v3h5.5v1.8h-5.5v3.2h6.5Z"/>
      <path class="st0" d="M143.2,50.7v1.8h-8.6v-11.5h8.4v1.8h-6.2v3h5.5v1.8h-5.5v3.2h6.5Z"/>
      <path class="st0" d="M152.2,52.4l-2.3-3.4c-.1,0-.3,0-.4,0h-2.6v3.3h-2.1v-11.5h4.7c3,0,4.9,1.5,4.9,4.1s-.9,3-2.4,3.6l2.6,3.8h-2.3ZM149.4,42.8h-2.5v4.6h2.5c1.9,0,2.8-.9,2.8-2.3s-1-2.3-2.8-2.3Z"/>
      <path class="st0" d="M155.9,41h2.1v11.5h-2.1v-11.5Z"/>
      <path class="st0" d="M170.5,41v11.5h-1.8l-6.3-7.8v7.8h-2.1v-11.5h1.8l6.3,7.8v-7.8h2.1Z"/>
      <path class="st0" d="M180.6,46.6h2v4.6c-1.2,1-2.9,1.5-4.5,1.5-3.5,0-6.2-2.5-6.2-5.9s2.6-5.9,6.2-5.9,3.5.6,4.6,1.9l-1.3,1.3c-.9-.9-1.9-1.3-3.2-1.3-2.4,0-4.2,1.7-4.2,4s1.7,4,4.1,4,1.6-.2,2.4-.6v-3.6Z"/>
      <path class="st0" d="M187.4,46.7c0-3.4,2.6-5.9,6.1-5.9s3.5.7,4.5,1.9l-1.4,1.3c-.8-.9-1.9-1.3-3.1-1.3-2.4,0-4.1,1.7-4.1,4s1.7,4,4.1,4,2.2-.4,3.1-1.4l1.4,1.3c-1.1,1.2-2.7,1.9-4.5,1.9-3.5,0-6.1-2.5-6.1-5.9Z"/>
      <path class="st0" d="M198.3,46.7c0-3.4,2.6-5.9,6.2-5.9s6.2,2.5,6.2,5.9-2.6,5.9-6.2,5.9-6.2-2.5-6.2-5.9ZM208.5,46.7c0-2.3-1.7-4-4-4s-4,1.7-4,4,1.7,4,4,4,4-1.7,4-4Z"/>
      <path class="st0" d="M210.8,51.2c0-.8.6-1.4,1.3-1.4s1.3.5,1.3,1.4-.6,1.4-1.3,1.4-1.3-.6-1.3-1.4Z"/>
      <path class="st0" d="M218.6,41h2.1v9.7h6v1.8h-8.1v-11.5Z"/>
      <path class="st0" d="M228.8,42.8h-3.8v-1.8h9.7v1.8h-3.8v9.7h-2.1v-9.7Z"/>
      <path class="st0" d="M235.5,41h5c3.7,0,6.2,2.3,6.2,5.7s-2.5,5.7-6.2,5.7h-5v-11.5ZM240.4,50.6c2.6,0,4.2-1.6,4.2-3.9s-1.7-3.9-4.2-3.9h-2.8v7.9h2.8Z"/>
    </g>
    <g>
      <path d="M84.3,63.6c-.5.4-1.2.6-2.1.6-1.5,0-2.2-.6-2.2-1.5s.4-1.1.9-1.2c-.4-.2-.7-.6-.7-1.2,0-.8.7-1.5,2.1-1.5s1.3.2,1.8.4l-.2.6c-.5-.2-1-.4-1.5-.4-.9,0-1.4.4-1.4.9s.4.8,1.1.8h1.4v.6h-1.4c-.8,0-1.3.3-1.3.8s.5.9,1.5.9,1.4-.2,1.8-.5l.3.6Z"/>
      <path d="M88.9,61.9v2.3h-.7v-2.2c0-.8-.4-1.2-1.1-1.2s-1.3.5-1.3,1.3v2.1h-.7v-4h.7v.6c.3-.4.8-.6,1.4-.6,1,0,1.7.6,1.7,1.7Z"/>
      <path d="M94.1,60.2v3.4c0,1.4-.7,2-2.1,2s-1.5-.2-1.9-.6l.3-.6c.4.3.9.5,1.5.5.9,0,1.4-.4,1.4-1.3v-.3c-.3.4-.9.6-1.4.6-1.2,0-2-.8-2-1.9s.9-1.9,2-1.9,1.1.2,1.5.7v-.6h.7ZM93.4,62.1c0-.8-.6-1.3-1.4-1.3s-1.4.5-1.4,1.3.6,1.3,1.4,1.3,1.4-.5,1.4-1.3Z"/>
      <path d="M95.3,59c0-.3.2-.5.5-.5s.5.2.5.5-.2.5-.5.5-.5-.2-.5-.5ZM95.4,60.2h.7v4h-.7v-4Z"/>
      <path d="M101.3,61.9v2.3h-.7v-2.2c0-.8-.4-1.2-1.1-1.2s-1.3.5-1.3,1.3v2.1h-.7v-4h.7v.6c.3-.4.8-.6,1.4-.6,1,0,1.7.6,1.7,1.7Z"/>
      <path d="M105.6,63.1l.4.5c-.4.4-.9.6-1.6.6-1.3,0-2.1-.8-2.1-2s.8-2,2-2,1.9.8,2,2l-3.2.6c.2.5.7.9,1.4.9s.9-.2,1.2-.5ZM103,62.1h0c0,0,2.6-.4,2.6-.4-.1-.6-.6-1-1.2-1s-1.3.5-1.3,1.4Z"/>
      <path d="M110.2,63.1l.4.5c-.4.4-.9.6-1.6.6-1.3,0-2.1-.8-2.1-2s.8-2,2-2,1.9.8,2,2l-3.2.6c.2.5.7.9,1.4.9s.9-.2,1.2-.5ZM107.6,62.1h0c0,0,2.6-.4,2.6-.4-.1-.6-.6-1-1.2-1s-1.3.5-1.3,1.4Z"/>
      <path d="M114,60.2v.7c0,0-.1,0-.2,0-.8,0-1.3.5-1.3,1.3v2h-.7v-4h.7v.7c.3-.5.8-.7,1.5-.7Z"/>
      <path d="M114.8,59c0-.3.2-.5.5-.5s.5.2.5.5-.2.5-.5.5-.5-.2-.5-.5ZM114.9,60.2h.7v4h-.7v-4Z"/>
      <path d="M120.8,61.9v2.3h-.7v-2.2c0-.8-.4-1.2-1.1-1.2s-1.3.5-1.3,1.3v2.1h-.7v-4h.7v.6c.3-.4.8-.6,1.4-.6,1,0,1.7.6,1.7,1.7Z"/>
      <path d="M126,60.2v3.4c0,1.4-.7,2-2.1,2s-1.5-.2-1.9-.6l.3-.6c.4.3.9.5,1.5.5.9,0,1.4-.4,1.4-1.3v-.3c-.3.4-.9.6-1.4.6-1.2,0-2-.8-2-1.9s.9-1.9,2-1.9,1.1.2,1.5.7v-.6h.7ZM125.2,62.1c0-.8-.6-1.3-1.4-1.3s-1.4.5-1.4,1.3.6,1.3,1.4,1.3,1.4-.5,1.4-1.3Z"/>
      <path d="M133.7,60.7c0,1.1-.8,1.8-2.2,1.8h-1.3v1.6h-.8v-5.3h2.1c1.4,0,2.2.7,2.2,1.8ZM133,60.7c0-.8-.5-1.2-1.5-1.2h-1.3v2.4h1.3c1,0,1.5-.4,1.5-1.2Z"/>
      <path d="M134.3,62.2c0-1.2.9-2,2.1-2s2.1.8,2.1,2-.9,2-2.1,2-2.1-.8-2.1-2ZM137.7,62.2c0-.9-.6-1.4-1.3-1.4s-1.3.5-1.3,1.4.6,1.4,1.3,1.4,1.3-.6,1.3-1.4Z"/>
      <path d="M145.5,60.2v2.2c0,1.2-.6,1.8-1.7,1.8s-1.1-.2-1.4-.7c-.3.5-.7.7-1.4.7-1.1,0-1.7-.7-1.7-1.8v-2.2h.7v2.1c0,.8.3,1.2,1,1.2s1-.4,1-1.2v-2.1h.7v2.1c0,.8.3,1.2,1,1.2s1-.4,1-1.2v-2.1h.7Z"/>
      <path d="M149.8,63.1l.4.5c-.4.4-.9.6-1.6.6-1.3,0-2.1-.8-2.1-2s.8-2,2-2,1.9.8,2,2l-3.2.6c.2.5.7.9,1.4.9s.9-.2,1.2-.5ZM147.2,62.1h0c0,0,2.5-.4,2.5-.4-.1-.6-.6-1-1.2-1s-1.3.5-1.3,1.4Z"/>
      <path d="M153.6,60.2v.7c0,0-.1,0-.2,0-.8,0-1.3.5-1.3,1.3v2h-.7v-4h.7v.7c.3-.5.8-.7,1.5-.7Z"/>
      <path d="M154.1,63.7c0-.3.2-.5.5-.5s.5.2.5.5-.2.5-.5.5-.5-.2-.5-.5Z"/>
      <path d="M157.8,63.6l.3-.6c.4.4,1.1.6,1.7.6s1.3-.4,1.3-.8c0-1.3-3.2-.5-3.2-2.4s.6-1.5,2-1.5,1.3.2,1.7.5l-.2.6c-.5-.3-1-.4-1.4-.4-.9,0-1.3.4-1.3.8,0,1.3,3.2.5,3.2,2.4s-.6,1.5-2,1.5-1.6-.3-2-.7Z"/>
      <path d="M166.6,60.2v4h-.7v-.6c-.3.4-.8.6-1.4.6-1,0-1.7-.6-1.7-1.7v-2.3h.7v2.2c0,.8.4,1.2,1.1,1.2s1.2-.5,1.2-1.3v-2.1h.7Z"/>
      <path d="M172.1,62.2c0,1.2-.8,2-2,2s-1.1-.2-1.4-.6v2.1h-.7v-5.4h.7v.6c.3-.4.8-.7,1.4-.7,1.2,0,2,.8,2,2ZM171.3,62.2c0-.8-.6-1.4-1.3-1.4s-1.3.6-1.3,1.4.6,1.4,1.3,1.4,1.3-.6,1.3-1.4Z"/>
      <path d="M177.2,62.2c0,1.2-.8,2-2,2s-1.1-.2-1.4-.6v2.1h-.7v-5.4h.7v.6c.3-.4.8-.7,1.4-.7,1.2,0,2,.8,2,2ZM176.5,62.2c0-.8-.6-1.4-1.3-1.4s-1.3.6-1.3,1.4.6,1.4,1.3,1.4,1.3-.6,1.3-1.4Z"/>
      <path d="M178.2,63v-4.4h.7v4.3c0,.4.2.7.6.7s.3,0,.4,0v.6c-.1,0-.3,0-.5,0-.8,0-1.2-.5-1.2-1.2Z"/>
      <path d="M184.3,60.2v3.4c0,1.4-.7,2-2,2s-1.4-.2-1.8-.6l.4-.6c.3.3.9.5,1.4.5.9,0,1.3-.4,1.3-1.3v-.3c-.3.4-.8.6-1.3.6-1,0-1.7-.6-1.7-1.7v-2.1h.7v2c0,.8.4,1.2,1.1,1.2s1.2-.5,1.2-1.3v-1.9h.7Z"/>
      <path d="M185.6,59c0-.3.2-.5.5-.5s.5.2.5.5-.2.5-.5.5-.5-.2-.5-.5ZM185.7,60.2h.7v4h-.7v-4Z"/>
      <path d="M191.6,61.9v2.3h-.7v-2.2c0-.8-.4-1.2-1.1-1.2s-1.3.5-1.3,1.3v2.1h-.7v-4h.7v.6c.3-.4.8-.6,1.4-.6,1,0,1.7.6,1.7,1.7Z"/>
      <path d="M196.8,60.2v3.4c0,1.4-.7,2-2.1,2s-1.5-.2-1.9-.6l.3-.6c.4.3.9.5,1.5.5.9,0,1.4-.4,1.4-1.3v-.3c-.3.4-.9.6-1.4.6-1.2,0-2-.8-2-1.9s.9-1.9,2-1.9,1.1.2,1.5.7v-.6h.7ZM196,62.1c0-.8-.6-1.3-1.4-1.3s-1.4.5-1.4,1.3.6,1.3,1.4,1.3,1.4-.5,1.4-1.3Z"/>
      <path d="M204.2,63.6c-.5.4-1.2.6-2.1.6-1.5,0-2.2-.6-2.2-1.5s.4-1.1.9-1.2c-.4-.2-.7-.6-.7-1.2,0-.8.7-1.5,2.1-1.5s1.3.2,1.8.4l-.2.6c-.5-.2-1-.4-1.5-.4-.9,0-1.4.4-1.4.9s.4.8,1.1.8h1.4v.6h-1.4c-.8,0-1.3.3-1.3.8s.5.9,1.5.9,1.4-.2,1.8-.5l.3.6Z"/>
      <path d="M207.4,64.2l-1.2-1.5-1.2,1.5h-.8l1.6-2-1.5-1.9h.8l1.1,1.4,1.1-1.4h.8l-1.5,1.9,1.6,2h-.8Z"/>
      <path d="M208.5,62.2c0-1.2.9-2,2.1-2s1.3.3,1.6.8l-.5.4c-.3-.4-.6-.6-1.1-.6-.8,0-1.4.5-1.4,1.4s.6,1.4,1.4,1.4.8-.2,1.1-.6l.5.3c-.3.6-.9.9-1.6.9-1.2,0-2.1-.8-2.1-2Z"/>
      <path d="M216.1,63.1l.4.5c-.4.4-.9.6-1.6.6-1.3,0-2.1-.8-2.1-2s.8-2,2-2,1.9.8,2,2l-3.2.6c.2.5.7.9,1.4.9s.9-.2,1.2-.5ZM213.5,62.1h0c0,0,2.5-.4,2.5-.4-.1-.6-.6-1-1.2-1s-1.3.5-1.3,1.4Z"/>
      <path d="M217.7,63v-4.4h.7v4.3c0,.4.2.7.6.7s.3,0,.4,0v.6c-.1,0-.3,0-.5,0-.8,0-1.2-.5-1.2-1.2Z"/>
      <path d="M220.1,63v-4.4h.7v4.3c0,.4.2.7.6.7s.3,0,.4,0v.6c-.1,0-.3,0-.5,0-.8,0-1.2-.5-1.2-1.2Z"/>
      <path d="M225.4,63.1l.4.5c-.4.4-.9.6-1.6.6-1.3,0-2.1-.8-2.1-2s.8-2,2-2,1.9.8,2,2l-3.2.6c.2.5.7.9,1.4.9s.9-.2,1.2-.5ZM222.8,62.1h0c0,0,2.5-.4,2.5-.4-.1-.6-.6-1-1.2-1s-1.3.5-1.3,1.4Z"/>
      <path d="M230.9,61.9v2.3h-.7v-2.2c0-.8-.4-1.2-1.1-1.2s-1.3.5-1.3,1.3v2.1h-.7v-4h.7v.6c.3-.4.8-.6,1.4-.6,1,0,1.7.6,1.7,1.7Z"/>
      <path d="M231.9,62.2c0-1.2.9-2,2.1-2s1.3.3,1.6.8l-.5.4c-.3-.4-.6-.6-1.1-.6-.8,0-1.4.5-1.4,1.4s.6,1.4,1.4,1.4.8-.2,1.1-.6l.5.3c-.3.6-.9.9-1.6.9-1.2,0-2.1-.8-2.1-2Z"/>
      <path d="M239.4,63.1l.4.5c-.4.4-.9.6-1.6.6-1.3,0-2.1-.8-2.1-2s.8-2,2-2,1.9.8,2,2l-3.2.6c.2.5.7.9,1.4.9s.9-.2,1.2-.5ZM236.8,62.1h0c0,0,2.5-.4,2.5-.4-.1-.6-.6-1-1.2-1s-1.3.5-1.3,1.4Z"/>
    </g>
  </g>
</svg>